<svg width="16" height="16" viewBox="0 0 16 16" fill="none" xmlns="http://www.w3.org/2000/svg">
<path d="M12.5 6.5V2.13C12.5 1.83031 12.3809 1.54289 12.169 1.33097C11.9571 1.11905 11.6697 1 11.37 1H4.63C4.33031 1 4.04289 1.11905 3.83097 1.33097C3.61906 1.54289 3.5 1.83031 3.5 2.13V12.87C3.49704 13.1488 3.5977 13.4187 3.78246 13.6275C3.96722 13.8363 4.22293 13.969 4.5 14V14.5C4.5 14.6326 4.55268 14.7598 4.64645 14.8536C4.74022 14.9473 4.86739 15 5 15C5.13261 15 5.25979 14.9473 5.35356 14.8536C5.44732 14.7598 5.5 14.6326 5.5 14.5V14H10.5V14.5C10.5 14.6326 10.5527 14.7598 10.6464 14.8536C10.7402 14.9473 10.8674 15 11 15C11.1326 15 11.2598 14.9473 11.3536 14.8536C11.4473 14.7598 11.5 14.6326 11.5 14.5V14C11.7745 13.9693 12.0281 13.8387 12.2125 13.6331C12.3969 13.4275 12.4993 13.1612 12.5 12.885V8.5C12.5 8.36739 12.4473 8.24021 12.3536 8.14645C12.2598 8.05268 12.1326 8 12 8C11.8674 8 11.7402 8.05268 11.6464 8.14645C11.5527 8.24021 11.5 8.36739 11.5 8.5V12.87C11.5 12.9045 11.4863 12.9375 11.4619 12.9619C11.4375 12.9863 11.4045 13 11.37 13H4.63C4.61293 13 4.59603 12.9966 4.58025 12.9901C4.56448 12.9836 4.55015 12.974 4.53808 12.9619C4.52601 12.9499 4.51643 12.9355 4.5099 12.9197C4.50337 12.904 4.5 12.8871 4.5 12.87V2.13C4.5 2.09552 4.5137 2.06246 4.53808 2.03808C4.56246 2.0137 4.59552 2 4.63 2H11.37C11.4045 2 11.4375 2.0137 11.4619 2.03808C11.4863 2.06246 11.5 2.09552 11.5 2.13V6H5.5C5.36739 6 5.24022 6.05268 5.14645 6.14645C5.05268 6.24021 5 6.36739 5 6.5C5 6.63261 5.05268 6.75979 5.14645 6.85355C5.24022 6.94732 5.36739 7 5.5 7H12C12.1326 7 12.2598 6.94732 12.3536 6.85355C12.4473 6.75979 12.5 6.63261 12.5 6.5Z" fill="#C5F48B"/>
<path d="M5.5 5C5.63261 5 5.75979 4.94732 5.85355 4.85355C5.94732 4.75979 6 4.63261 6 4.5V4C6 3.86739 5.94732 3.74021 5.85355 3.64645C5.75979 3.55268 5.63261 3.5 5.5 3.5C5.36739 3.5 5.24021 3.55268 5.14645 3.64645C5.05268 3.74021 5 3.86739 5 4V4.5C5 4.63261 5.05268 4.75979 5.14645 4.85355C5.24021 4.94732 5.36739 5 5.5 5Z" fill="#C5F48B"/>
<path d="M5 8.5V9.5C5 9.63261 5.05268 9.75979 5.14645 9.85355C5.24021 9.94732 5.36739 10 5.5 10C5.63261 10 5.75979 9.94732 5.85355 9.85355C5.94732 9.75979 6 9.63261 6 9.5V8.5C6 8.36739 5.94732 8.24021 5.85355 8.14645C5.75979 8.05268 5.63261 8 5.5 8C5.36739 8 5.24021 8.05268 5.14645 8.14645C5.05268 8.24021 5 8.36739 5 8.5Z" fill="#C5F48B"/>
</svg>
