<svg width="1920" height="1080" viewBox="0 0 1920 1080" fill="none" xmlns="http://www.w3.org/2000/svg">
<g id="fridgeBg" clip-path="url(#clip0_3_2)">
<g id="radish">
<path id="Vector" d="M1348.57 511.808C1346.44 510.763 1344.41 510.586 1342.53 511.279L1342.38 511.334C1339.8 512.355 1338.1 514.726 1336.3 519.779C1335.06 523.266 1333.98 527.596 1333.27 531.971C1331.87 540.522 1331.12 553.203 1335.47 565.06C1342.68 584.687 1358.77 605.618 1360.56 607.925C1364.06 621.517 1370.92 647.524 1375.6 661.441L1387.16 657.55C1382.46 643.582 1375.26 616.079 1371.95 603.196C1373.85 593.465 1379.68 560.708 1375.22 546.357C1370.7 531.767 1355.01 514.993 1348.57 511.808Z" fill="#8CC153"/>
<path id="Vector_2" d="M1421.1 539.097C1419.46 538.369 1417.64 538.359 1415.72 539.068C1409.81 541.244 1388.04 558.138 1382.86 579.635C1378.28 598.641 1379.96 622.886 1380.45 628.646C1378.38 632.906 1376.49 638.652 1375.4 646.332C1368.7 639.787 1362.4 634.14 1357.06 629.586L1356.54 628.317C1355.67 626.229 1335.24 576.997 1319.19 560.348C1311.87 552.76 1301.29 544.655 1290.16 538.117C1271.94 527.414 1266.88 529.084 1265.22 529.63C1265.14 529.659 1265.06 529.688 1264.99 529.716C1263.48 530.272 1260.82 531.841 1259.91 536.116C1258.51 542.773 1261.84 554.505 1265.42 563.264C1270.75 576.295 1278.57 588.189 1287.42 596.749C1304.45 613.218 1330.74 627.412 1342.43 633.298C1350.84 640.124 1364.31 651.749 1377.9 666.337L1386.83 658.023C1386.61 657.788 1386.4 657.562 1386.19 657.336L1386.7 657.348C1387.13 644.083 1389.92 636.459 1392.28 632.323C1399.25 625.69 1424.27 601.117 1428.69 586.363C1430.22 581.229 1431.56 572.18 1429.16 558.265C1428.47 554.327 1427.55 550.428 1426.53 547.28C1425.17 543.012 1423.84 540.302 1421.1 539.097Z" fill="#A0D468"/>
<path id="Vector_3" d="M1410.66 764.163L1416.03 778.736C1417.2 781.896 1420.7 783.519 1423.86 782.354C1427.02 781.189 1428.64 777.677 1427.48 774.517L1422.11 759.945L1410.66 764.163Z" fill="#CCD1D9"/>
<g id="Group">
<path id="Vector_4" d="M1448.3 689.918C1464.12 732.844 1419.65 770.904 1419.65 770.904C1419.65 770.904 1361.13 770.801 1345.31 727.875C1334.63 698.895 1349.03 666.913 1377.46 656.432C1405.91 645.949 1437.62 660.938 1448.3 689.918Z" fill="#EC87C0"/>
</g>
<path id="Vector_5" d="M1373.2 758.995C1394.87 770.855 1419.65 770.906 1419.65 770.906C1419.65 770.906 1438.44 754.819 1447.24 731.774C1438.75 730.399 1423.59 729.49 1406.68 735.724C1389.86 741.924 1378.85 752.4 1373.2 758.995Z" fill="#E6E9ED"/>
<g id="Group_2" opacity="0.2">
<path id="Vector_6" d="M1377.46 656.433C1375.53 657.145 1373.66 657.958 1371.86 658.868C1398.68 652.28 1426.9 667.131 1436.85 694.138C1449.39 728.167 1424.05 759.132 1413.01 770.506C1417.14 770.902 1419.65 770.906 1419.65 770.906C1419.65 770.906 1464.12 732.845 1448.3 689.919C1437.62 660.938 1405.91 645.949 1377.46 656.433Z" fill="white"/>
</g>
</g>
<g id="bacon">
<g id="Group_3">
<path id="Vector_7" d="M36.4565 527.596C35.0338 527.946 33.7656 527.236 32.9769 525.65L13.2055 486.057C11.7338 483.122 12.7559 478.609 15.3323 476.587L32.6864 462.983C36.7408 459.8 44.3704 455.993 49.3422 454.66L70.6429 448.962C76.9648 447.273 85.9519 442.789 91.0965 438.747L108.453 425.151C112.507 421.968 120.136 418.161 125.109 416.827L146.409 411.13L146.522 411.102C149.713 410.318 153.799 412.196 155.259 415.117L175.032 454.717C175.566 455.783 175.657 456.838 175.28 457.673C174.904 458.516 174.054 459.147 172.901 459.463L151.279 465.279C144.961 466.984 135.985 471.48 130.842 475.53L113.778 488.95C109.731 492.132 102.111 495.944 97.1389 497.278L75.8382 502.976C69.5168 504.665 60.5369 509.147 55.3846 513.19L38.0363 526.785C37.5149 527.193 36.9835 527.467 36.4565 527.596Z" fill="#ED5564"/>
</g>
<path id="Vector_8" d="M179.766 452.348L159.995 412.756C157.428 407.608 150.836 404.59 145.258 405.961C145.183 405.979 145.108 405.997 145.04 406.014L123.742 411.719C118.116 413.221 109.769 417.388 105.184 420.981L87.8309 434.585C83.2534 438.176 74.8994 442.344 69.2756 443.854L47.9749 449.551C42.3497 451.053 34.003 455.22 29.4184 458.813L12.0719 472.415C7.48728 476.008 5.86446 483.207 8.46963 488.418L28.2428 528.018C30.1939 531.929 34.0011 533.651 37.7198 532.737C38.9468 532.436 40.1598 531.85 41.2968 530.956L58.651 517.352C63.2356 513.759 71.5824 509.593 77.2058 508.083L98.5064 502.386C104.132 500.884 112.477 496.71 117.052 493.111L134.116 479.69C138.692 476.091 147.032 471.902 152.656 470.393L174.277 464.568C179.9 463.059 182.372 457.558 179.766 452.348ZM18.5982 480.749L35.9524 467.146C39.4184 464.426 46.4582 460.916 50.7116 459.775L72.0123 454.077C79.0378 452.199 88.6431 447.404 94.3648 442.917L111.719 429.313C115.185 426.593 122.225 423.084 126.479 421.942L147.786 416.243C148.561 416.052 150.177 416.781 150.526 417.485L157.221 430.894L136.89 435.403C130.374 436.853 121.295 441.383 116.224 445.727L99.1513 460.346C95.3976 463.552 87.8926 467.312 83.0698 468.377L61.1318 473.233C54.6078 474.685 45.5285 479.215 40.4575 483.559L24.6376 497.105L17.9403 483.689C17.5818 482.978 17.97 481.246 18.5982 480.749ZM149.903 460.166C142.889 462.057 133.289 466.875 127.57 471.369L110.513 484.788C107.047 487.508 100.024 491.022 95.7709 492.163L74.4702 497.86C67.4524 499.737 57.8394 504.533 52.1178 509.021L36.6459 521.156L29.5101 506.866L47.3426 491.605C51.0873 488.394 58.6033 484.647 63.4169 483.576L85.3607 478.709C91.8842 477.258 100.964 472.728 106.035 468.384L123.107 453.764C126.854 450.561 134.367 446.799 139.183 445.743L162.104 440.661L169.243 454.966L149.903 460.166Z" fill="#DA4453"/>
<g id="Group_4">
<path id="Vector_9" d="M272.235 583.264C271.662 583.405 271.012 583.389 270.317 583.224L248.507 578.143C242.14 576.659 232.098 576.397 225.657 577.533L204.281 581.301C199.209 582.196 190.69 581.96 185.675 580.782L164.215 575.759C157.844 574.26 147.802 573.966 141.361 575.102L119.639 578.892C118.462 579.101 117.436 578.891 116.735 578.28C116.046 577.683 115.685 576.702 115.716 575.497L116.987 531.268C117.078 528.101 119.813 524.775 122.952 524.003C123.08 523.972 123.207 523.94 123.337 523.917L145.057 520.12C150.131 519.232 158.653 519.48 163.668 520.659L185.132 525.697C191.5 527.181 201.542 527.475 207.986 526.353L229.704 522.548C234.776 521.653 243.307 521.903 248.322 523.082L269.786 528.12C272.979 528.868 275.796 532.534 275.707 535.812L274.44 580.056C274.388 581.761 273.582 582.933 272.235 583.264Z" fill="#ED5564"/>
</g>
<path id="Vector_10" d="M270.994 522.97L249.53 517.932C243.854 516.597 234.53 516.335 228.788 517.331L207.078 521.134C201.337 522.13 192.013 521.867 186.34 520.547L164.875 515.505C159.209 514.176 149.876 513.907 144.143 514.909L122.424 518.706C122.179 518.75 121.936 518.801 121.688 518.862C116.283 520.191 111.851 525.542 111.697 531.116L110.426 575.345C110.259 581.165 114.812 585.107 120.554 584.111L142.272 580.306C148.006 579.312 157.337 579.573 163.005 580.91L184.469 585.947C190.134 587.269 199.465 587.53 205.196 586.521L226.579 582.75C232.305 581.726 241.637 581.987 247.309 583.307L269.119 588.388C270.667 588.742 272.156 588.727 273.496 588.398C277.056 587.523 279.606 584.422 279.729 580.209L280.996 535.965C281.162 530.145 276.659 524.291 270.994 522.97ZM124.214 529.142C124.229 529.138 124.237 529.136 124.244 529.134L145.966 525.345C150.304 524.582 158.165 524.805 162.459 525.809L183.923 530.847C191.004 532.507 201.734 532.807 208.898 531.557L230.619 527.768C234.957 527.005 242.819 527.228 247.112 528.232L268.576 533.271C269.354 533.447 270.435 534.857 270.417 535.66L269.981 550.646L249.937 545.019C243.507 543.215 233.356 542.932 226.835 544.359L204.888 549.178C200.063 550.236 191.672 549.999 186.924 548.675L165.283 542.596C158.854 540.791 148.71 540.507 142.189 541.935L121.848 546.407L122.277 531.423C122.298 530.698 123.341 529.356 124.214 529.142ZM269.215 577.541L249.708 572.996C242.631 571.351 231.893 571.052 224.733 572.317L203.362 576.101C199.023 576.864 191.17 576.639 186.883 575.633L165.419 570.594C158.338 568.934 147.608 568.634 140.445 569.883L121.075 573.27L121.534 557.305L144.459 552.278C149.273 551.207 157.676 551.457 162.423 552.781L184.063 558.861C190.493 560.665 200.637 560.949 207.159 559.522L229.113 554.702C233.927 553.631 242.322 553.882 247.069 555.206L269.671 561.56L269.215 577.541Z" fill="#DA4453"/>
</g>
<g id="eggplant">
<path id="Vector_11" d="M236.156 937.236C236.533 934.966 235.002 932.82 232.732 932.443C231.943 932.312 231.177 932.417 230.488 932.695L230.488 932.692C216.369 938.398 213.649 946.478 213.387 947.381L221.383 949.716C221.383 949.716 221.376 949.758 221.351 949.835C221.354 949.82 221.826 948.54 223.517 946.773C225.128 945.082 228.187 942.608 233.612 940.415L233.606 940.411C234.906 939.884 235.909 938.721 236.156 937.236Z" fill="#8CC153"/>
<g id="Group_5">
<path id="Vector_12" d="M123.341 969.609C64.4 938.289 21.811 956.134 24.6746 999.266C28.0164 1049.66 102.543 1054.81 143.756 1035.93C204.135 1008.27 206.178 977.66 206.178 977.66L193.328 950.186C193.328 950.186 146.094 981.7 123.341 969.609Z" fill="#AC92EB"/>
</g>
<g id="Group_6" opacity="0.2">
<path id="Vector_13" d="M122.659 973.718C145.412 985.807 192.645 954.298 192.645 954.298L205.358 981.48C206.084 979.039 206.177 977.66 206.177 977.66L193.327 950.185C193.327 950.185 146.093 981.7 123.341 969.608C69.4256 940.961 29.1986 953.447 24.9155 988.794C31.7394 956.628 70.8929 946.212 122.659 973.718Z" fill="white"/>
</g>
<g id="Group_7" opacity="0.1">
<path id="Vector_14" d="M205.611 976.45C201.359 987.084 187.849 1008.13 145.122 1027.7C103.907 1046.59 29.3796 1041.44 26.0389 991.047C25.8473 988.138 25.8583 985.35 26.0733 982.676C24.7625 987.667 24.2742 993.216 24.6747 999.265C28.0164 1049.66 102.543 1054.81 143.757 1035.93C204.135 1008.27 206.178 977.66 206.178 977.66L205.611 976.45Z" fill="black"/>
</g>
<path id="Vector_15" d="M210.624 937.116L208.436 938.034C208.31 938.087 195.887 943.304 183.619 948.553C176.406 951.643 170.658 954.141 166.524 955.976C164.051 957.082 162.124 957.959 160.806 958.591C160.033 958.958 159.459 959.249 159.031 959.481C158.364 959.847 156.324 960.956 156.307 963.484C156.301 964.036 156.449 966.839 159.841 967.795C160.308 967.928 160.882 968.048 161.653 968.176C163.242 968.44 165.469 968.701 167.824 968.978C169.608 969.187 171.441 969.402 172.946 969.614C172.823 970.658 172.686 971.817 172.563 972.814C171.465 981.742 171.272 983.353 172.512 985.09C173.618 986.628 175.322 986.911 175.96 987.017C177.46 987.266 180.018 987.356 182.724 987.453C183.678 987.482 184.754 987.524 185.687 987.568C185.875 988.638 186.08 989.897 186.257 990.953C186.689 993.537 187.166 996.474 187.653 998.795C188.324 1002.06 189.027 1005.43 192.356 1005.98C195.162 1006.45 196.617 1004.39 198.154 1002.22C199.081 1000.91 200.365 998.993 201.97 996.519C204.638 992.414 208.256 986.679 212.724 979.477C220.318 967.235 227.856 954.81 227.933 954.683L229.894 951.442L210.624 937.116Z" fill="#A0D468"/>
</g>
<g id="garlic">
<g id="Group_8">
<path id="Vector_16" d="M395.764 996.794C395.338 996.861 370.286 1000.71 344.632 997.624C329.962 995.855 318.01 992.212 309.127 986.781C298.534 980.305 292.492 971.543 290.658 959.988C285.337 926.468 299.89 911.93 318.319 893.534C331.853 880.021 347.114 864.79 356.036 839.791L385.003 835.193C400.91 855.969 420.045 865.605 437.025 874.147C460.424 885.922 478.905 895.216 484.3 929.207C486.133 940.753 483.109 950.944 475.049 960.381C468.284 968.296 458.067 975.467 444.685 981.697C421.218 992.617 396.154 996.732 395.764 996.794Z" fill="#EFCADB"/>
</g>
<g id="Group_9">
<path id="Vector_17" d="M387.659 828.576L384.143 806.424L344.017 787.993L351.373 834.336L387.659 828.576Z" fill="#A0D468"/>
</g>
<path id="Vector_18" d="M490.344 928.248C482.037 875.915 443.64 876.386 410.06 851.347C409.195 850.54 408.667 850.07 408.551 849.97L408.427 850.108C401.146 844.468 394.118 837.563 387.712 828.568L351.426 834.328C348.054 844.847 343.522 853.606 338.383 861.235L338.212 861.134C338.124 861.266 337.739 861.927 337.126 863.051C312.781 897.739 276.378 909.113 284.606 960.949C293.847 1019.18 396.724 1002.85 396.724 1002.85C396.831 1002.83 415.124 999.898 435.554 992.168L435.574 992.182C435.582 992.172 435.589 992.162 435.587 992.153C463.626 981.534 495.68 961.867 490.344 928.248ZM296.701 959.029C294.475 945.002 295.825 933.878 300.953 924.007C305.812 914.669 313.614 906.881 322.65 897.87C323.363 897.158 324.075 896.436 324.798 895.722C323.731 900.052 322.824 904.693 322.153 909.568C319.919 925.939 320.97 941.605 325.293 956.135C329.062 968.827 335.321 980.625 343.966 991.363C330.868 989.653 320.245 986.371 312.384 981.595C303.374 976.112 298.241 968.732 296.701 959.029ZM361.633 992.663C349.747 980.906 341.502 967.543 337.104 952.88C333.265 940.081 332.299 926.208 334.235 911.629C336.962 891.093 344.764 874.83 347.642 869.376C352.939 861.713 357.2 853.76 360.524 845.284L382.419 841.809C388.7 849.505 395.369 855.633 402.158 860.75C406.606 865.077 419.031 878.112 427.967 896.752C434.324 910.015 437.701 923.504 438.013 936.863C438.369 952.15 434.675 967.399 427.028 982.238C409.775 988.292 394.981 990.723 394.804 990.751C394.619 990.78 379.909 993.06 361.633 992.663ZM470.447 956.343C464.473 963.35 455.387 969.798 443.423 975.521C448.301 962.647 450.595 949.51 450.251 936.301C449.854 921.147 446.011 905.924 438.818 891.05C436.614 886.494 434.235 882.266 431.819 878.38C432.639 878.795 433.459 879.209 434.269 879.617C445.701 885.37 455.583 890.342 463.158 897.77C471.195 905.651 475.989 915.936 478.248 930.167C479.778 939.809 477.231 948.371 470.447 956.343Z" fill="#E2B7CC"/>
<path id="Vector_19" d="M420.008 992.946L371.617 1000.63C368.277 1001.16 366.005 1004.3 366.535 1007.64C367.065 1010.98 370.197 1013.25 373.537 1012.72L421.928 1005.04C425.268 1004.51 427.541 1001.38 427.011 998.039C426.481 994.698 423.348 992.415 420.008 992.946Z" fill="#E2B7CC"/>
<path id="Vector_20" d="M400.901 989.783C401.431 993.124 399.157 996.255 395.817 996.785C392.476 997.316 389.336 995.043 388.806 991.703C388.275 988.362 390.556 985.22 393.897 984.69C397.238 984.16 400.37 986.442 400.901 989.783Z" fill="#E2B7CC"/>
<path id="Vector_21" d="M419.048 986.902C419.579 990.243 417.296 993.376 413.955 993.906C410.614 994.437 407.483 992.163 406.953 988.822C406.423 985.482 408.695 982.341 412.035 981.811C415.376 981.281 418.518 983.562 419.048 986.902Z" fill="#E2B7CC"/>
<path id="Vector_22" d="M382.753 992.663C383.283 996.004 381.01 999.135 377.669 999.666C374.329 1000.2 371.188 997.923 370.658 994.583C370.127 991.243 372.408 988.1 375.749 987.57C379.09 987.04 382.223 989.322 382.753 992.663Z" fill="#E2B7CC"/>
</g>
<g id="cherry">
<path id="Vector_23" d="M1501.61 847.025C1520.24 866.863 1553.53 950.363 1545.53 957.867C1537.54 965.376 1456.29 926.919 1437.66 907.083C1419.03 887.252 1418.25 857.726 1435.91 841.144C1453.57 824.556 1482.98 827.195 1501.61 847.025Z" fill="#8CC153"/>
<g id="Group_10">
<path id="Vector_24" d="M1341.68 920.31C1339.17 918.705 1338.35 915.385 1339.88 912.788C1352.35 891.52 1368.66 873.339 1388.39 858.743C1404.12 847.095 1422.04 837.711 1441.63 830.841C1474.95 819.164 1501.36 818.814 1502.47 818.803C1505.55 818.777 1508.07 821.262 1508.1 824.347C1508.13 827.425 1505.64 829.942 1502.56 829.968C1502.31 829.975 1476.59 830.35 1444.95 841.504C1426.48 848.026 1409.62 856.889 1394.83 867.862C1376.42 881.529 1361.17 898.548 1349.51 918.438C1347.95 921.101 1344.53 921.989 1341.86 920.429C1341.8 920.389 1341.74 920.35 1341.68 920.31Z" fill="#A0D468"/>
</g>
<g id="Group_11">
<path id="Vector_25" d="M1451.15 977.125C1448.6 975.494 1447.81 972.103 1449.4 969.51C1477.92 922.944 1455.62 833.105 1455.39 832.209C1454.63 829.219 1456.44 826.181 1459.43 825.425C1462.42 824.668 1465.46 826.476 1466.21 829.466C1466.46 830.43 1472.22 853.4 1474.33 882.817C1475.58 900.171 1475.27 916.152 1473.43 930.305C1471.08 948.31 1466.2 963.461 1458.93 975.342C1457.32 977.974 1453.88 978.794 1451.25 977.187C1451.22 977.169 1451.19 977.147 1451.15 977.125Z" fill="#A0D468"/>
</g>
<path id="Vector_26" d="M1367.63 983.33C1352.68 1006.7 1316.49 1016.88 1290.52 1000.25C1264.55 983.633 1258.41 946.37 1273.59 923.135C1301.06 881.059 1328.89 898.871 1344.69 915.616C1366.51 922.948 1394.72 941.007 1367.63 983.33Z" fill="#D63A5F"/>
<g id="Group_12" opacity="0.2">
<path id="Vector_27" d="M1356.28 920.457C1369.53 931.059 1376.61 948.6 1358.23 977.311C1344.19 999.257 1311.43 1009.57 1285.98 996.988C1287.42 998.152 1288.93 999.235 1290.52 1000.25C1316.49 1016.88 1352.68 1006.7 1367.63 983.33C1390.04 948.329 1374.62 929.925 1356.28 920.457Z" fill="white"/>
</g>
<path id="Vector_28" d="M1477.11 1040.14C1462.15 1063.52 1425.96 1073.69 1400 1057.07C1374.02 1040.44 1367.89 1003.18 1383.06 979.949C1410.54 937.874 1438.37 955.686 1454.17 972.425C1475.98 979.763 1504.2 997.822 1477.11 1040.14Z" fill="#C6325C"/>
<g id="Group_13" opacity="0.2">
<path id="Vector_29" d="M1465.74 977.268C1479.01 987.874 1486.08 1005.42 1467.71 1034.13C1453.67 1056.07 1420.9 1066.38 1395.46 1053.8C1396.89 1054.96 1398.4 1056.05 1399.99 1057.07C1425.96 1073.69 1462.15 1063.52 1477.11 1040.14C1499.51 1005.14 1484.09 986.74 1465.74 977.268Z" fill="white"/>
</g>
</g>
<g id="banana">
<g id="Group_14">
<path id="Vector_30" d="M402.93 516.884C417.93 651.39 263.622 678.835 263.622 678.835C263.622 678.835 262.074 680.259 264.301 689.854C266.529 699.449 269.107 699.112 269.107 699.112C417.738 739.292 485.777 568.784 434.213 512.664L422.071 503.915L408.273 498.391L405.001 499.757C405.888 510.708 408.947 507.989 408.947 507.989L402.93 516.884Z" fill="#F6BB42"/>
</g>
<path id="Vector_31" d="M267.741 684.815C266.464 683.652 264.774 683.234 263.196 683.526C263.344 685.084 263.672 687.143 264.301 689.854C264.677 691.469 265.059 692.797 265.44 693.899C266.429 693.656 267.354 693.129 268.09 692.322C270.067 690.151 269.909 686.79 267.741 684.815Z" fill="#434A54"/>
<g id="Group_15">
<path id="Vector_32" d="M396.174 521.824C442.31 649.06 307.626 708.519 307.626 708.519C307.626 708.519 306.456 710.268 310.869 719.07C315.285 727.874 317.715 726.942 317.715 726.942C471.627 731.138 497.768 549.419 434.478 506.962C434.478 506.962 423.916 501.385 420.622 501.303C417.324 501.227 396.876 475.297 396.876 475.297L371.61 489.316C384.781 499.777 396.28 510.749 396.008 513.713C395.74 516.679 396.174 521.824 396.174 521.824Z" fill="#FFCE54"/>
</g>
<path id="Vector_33" d="M313.08 722.968C313.712 722.635 314.288 722.173 314.759 721.579C316.584 719.282 316.198 715.939 313.901 714.114C312.286 712.831 310.159 712.643 308.409 713.439C308.918 714.882 309.691 716.723 310.868 719.069C311.673 720.672 312.409 721.948 313.08 722.968Z" fill="#434A54"/>
<path id="Vector_34" d="M371.61 489.316C384.781 499.778 396.281 510.749 396.009 513.713C403.828 504.938 420.622 501.303 420.622 501.303C417.323 501.228 396.876 475.297 396.876 475.297L371.61 489.316Z" fill="#F6BB42"/>
<g id="Group_16" opacity="0.2">
<path id="Vector_35" d="M420.622 501.303C417.324 501.227 396.876 475.297 396.876 475.297L385.596 481.553C391.629 488.998 403.274 502.957 405.69 503.018C408.992 503.096 419.545 508.677 419.545 508.677C478.086 547.948 460.117 706.353 335.295 726.59C473.547 717.045 495.278 547.749 434.478 506.962C434.478 506.962 423.916 501.385 420.622 501.303Z" fill="white"/>
</g>
</g>
<g id="grapes">
<g id="Group_17">
<path id="Vector_36" d="M1803.17 67.8482C1778.43 86.6868 1750.05 152.942 1754.36 158.59C1758.66 164.243 1830.08 154.487 1854.81 135.65C1879.54 116.817 1888.03 86.3642 1873.76 67.6457C1859.5 48.9223 1827.9 49.0152 1803.17 67.8482Z" fill="#8CC153"/>
</g>
<path id="Vector_37" d="M1864.32 -3.09352C1862.28 -6.45586 1857.89 -7.52103 1854.53 -5.47678C1853.67 -4.95626 1852.97 -4.28873 1852.43 -3.52801C1851.71 -2.51811 1846.63 5.09224 1846.07 19.5216C1845.35 38.0807 1852.15 59.2624 1866.32 82.4765L1878.48 75.0581C1870.03 61.1971 1860.01 40.6375 1860.27 21.3899C1860.42 10.2596 1864.04 4.73781 1864.08 4.68328L1864.04 4.73816C1865.64 2.48381 1865.84 -0.587321 1864.32 -3.09352Z" fill="#A0D468"/>
<g id="Group_18">
<path id="Vector_38" d="M1969.52 224.794C1959.29 207.975 1937.38 202.632 1920.57 212.853C1903.76 223.073 1898.42 244.985 1908.64 261.805C1918.86 278.614 1940.77 283.956 1957.58 273.736C1974.39 263.515 1979.74 241.604 1969.52 224.794Z" fill="#9782D8"/>
</g>
<path id="Vector_39" opacity="0.2" d="M1925.58 234.82C1927.63 238.191 1926.56 242.565 1923.2 244.609C1919.84 246.653 1915.46 245.592 1913.41 242.221C1911.37 238.868 1912.44 234.48 1915.8 232.436C1919.16 230.392 1923.54 231.467 1925.58 234.82Z" fill="white"/>
<g id="Group_19">
<path id="Vector_40" d="M1868.99 169.17C1858.77 152.361 1836.86 147.014 1820.05 157.234C1803.23 167.46 1797.89 189.376 1808.11 206.186C1818.33 222.996 1840.25 228.343 1857.07 218.117C1873.88 207.896 1879.21 185.98 1868.99 169.17Z" fill="#9782D8"/>
</g>
<path id="Vector_41" opacity="0.2" d="M1825.06 179.201C1827.11 182.563 1826.04 186.947 1822.67 188.991C1819.31 191.035 1814.93 189.964 1812.89 186.602C1810.85 183.24 1811.91 178.862 1815.27 176.818C1818.63 174.773 1823.02 175.839 1825.06 179.201Z" fill="white"/>
<g id="Group_20">
<path id="Vector_42" d="M1919.26 196.978C1909.04 180.167 1887.12 174.826 1870.3 185.046C1853.49 195.267 1848.16 217.183 1858.38 233.993C1868.6 250.803 1890.51 256.145 1907.32 245.925C1924.13 235.704 1929.48 213.787 1919.26 196.978Z" fill="#AC92EB"/>
</g>
<path id="Vector_43" opacity="0.2" d="M1875.33 207.013C1877.37 210.366 1876.3 214.754 1872.94 216.798C1869.57 218.842 1865.19 217.772 1863.15 214.419C1861.1 211.048 1862.17 206.669 1865.54 204.625C1868.9 202.581 1873.28 203.642 1875.33 207.013Z" fill="white"/>
<g id="Group_21">
<path id="Vector_44" d="M1967.96 167.369C1957.74 150.558 1935.82 145.212 1919.01 155.431C1902.2 165.657 1896.86 187.573 1907.08 204.384C1917.3 221.193 1939.21 226.535 1956.03 216.31C1972.84 206.09 1978.18 184.178 1967.96 167.369Z" fill="#9782D8"/>
</g>
<path id="Vector_45" opacity="0.2" d="M1924.03 177.404C1926.07 180.757 1925 185.145 1921.64 187.189C1918.28 189.232 1913.9 188.157 1911.86 184.804C1909.81 181.433 1910.88 177.059 1914.24 175.015C1917.6 172.971 1921.98 174.033 1924.03 177.404Z" fill="white"/>
<g id="Group_22">
<path id="Vector_46" d="M1917.69 139.561C1907.47 122.751 1885.56 117.405 1868.75 127.625C1851.94 137.845 1846.6 159.762 1856.82 176.572C1867.04 193.382 1888.96 198.728 1905.77 188.508C1922.58 178.287 1927.92 156.371 1917.69 139.561Z" fill="#AC92EB"/>
</g>
<path id="Vector_47" opacity="0.2" d="M1873.76 149.592C1875.81 152.954 1874.74 157.332 1871.38 159.376C1868.02 161.42 1863.64 160.355 1861.59 156.992C1859.55 153.631 1860.62 149.247 1863.98 147.203C1867.34 145.16 1871.72 146.23 1873.76 149.592Z" fill="white"/>
<g id="Group_23">
<path id="Vector_48" d="M1966.4 109.947C1956.18 93.1368 1934.26 87.7955 1917.45 98.016C1900.64 108.236 1895.3 130.152 1905.52 146.962C1915.74 163.773 1937.66 169.119 1954.47 158.899C1971.28 148.678 1976.62 126.757 1966.4 109.947Z" fill="#AC92EB"/>
</g>
<path id="Vector_49" opacity="0.2" d="M1922.47 119.977C1924.52 123.34 1923.44 127.723 1920.08 129.767C1916.72 131.811 1912.34 130.746 1910.29 127.384C1908.25 124.022 1909.32 119.638 1912.68 117.594C1916.04 115.551 1920.43 116.616 1922.47 119.977Z" fill="white"/>
<g id="Group_24">
<path id="Vector_50" d="M1867.43 111.75C1857.21 94.9392 1835.3 89.5978 1818.49 99.818C1801.68 110.038 1796.34 131.949 1806.56 148.76C1816.78 165.574 1838.69 170.916 1855.5 160.696C1872.31 150.475 1877.65 128.564 1867.43 111.75Z" fill="#AC92EB"/>
</g>
<path id="Vector_51" opacity="0.2" d="M1823.51 121.78C1825.55 125.142 1824.48 129.525 1821.12 131.569C1817.76 133.613 1813.37 132.548 1811.33 129.186C1809.28 125.823 1810.35 121.436 1813.72 119.392C1817.08 117.348 1821.47 118.417 1823.51 121.78Z" fill="white"/>
<g id="Group_25">
<path id="Vector_52" d="M1964.84 52.5263C1954.62 35.7158 1932.71 30.374 1915.9 40.5942C1899.09 50.8148 1893.74 72.7315 1903.96 89.5421C1914.18 106.357 1936.1 111.692 1952.91 101.472C1969.72 91.2517 1975.06 69.3409 1964.84 52.5263Z" fill="#AC92EB"/>
</g>
<path id="Vector_53" opacity="0.2" d="M1920.91 62.5613C1922.96 65.9237 1921.89 70.3017 1918.52 72.3512C1915.17 74.3899 1910.78 73.3247 1908.74 69.9624C1906.69 66.6001 1907.76 62.2128 1911.12 60.1741C1914.49 58.124 1918.87 59.199 1920.91 62.5613Z" fill="white"/>
<g id="Group_26">
<path id="Vector_54" d="M1916.14 82.1355C1905.92 65.325 1884.01 59.9836 1867.19 70.209C1850.38 80.4295 1845.04 102.34 1855.26 119.151C1865.48 135.965 1887.39 141.307 1904.2 131.087C1921.02 120.861 1926.36 98.9501 1916.14 82.1355Z" fill="#9782D8"/>
</g>
<path id="Vector_55" opacity="0.2" d="M1872.21 92.1704C1874.25 95.5327 1873.18 99.916 1869.82 101.96C1866.46 104.004 1862.07 102.939 1860.03 99.5766C1857.98 96.2143 1859.05 91.827 1862.42 89.7828C1865.78 87.7385 1870.17 88.808 1872.21 92.1704Z" fill="white"/>
</g>
<g id="brussels_sprouts">
<path id="Vector_56" d="M54.7627 739.503C18.7394 742.731 16.9229 766.805 16.9229 766.805L15.6151 784.997L19.1416 792.068L53.021 795.35L91.2489 779.274L96.6238 756.536C96.6238 756.536 90.4802 736.299 54.7627 739.503Z" fill="#81AF46"/>
<path id="Vector_57" opacity="0.1" d="M58.6819 739.243C57.4153 739.293 56.1107 739.383 54.7626 739.503C49.5443 739.967 45.0451 740.876 41.161 742.086C39.705 744.398 38.4612 746.979 37.6182 749.842C35.1015 758.375 36.5726 767.373 41.9992 776.575L51.2942 771.097C47.4626 764.595 46.339 758.49 47.9472 752.957C49.8627 746.385 55.211 741.696 58.6819 739.243Z" fill="black"/>
<path id="Vector_58" d="M231.898 682.257C203.214 660.224 185.12 669.047 185.12 669.047L168.57 704.257C168.57 704.257 188.06 731.272 188.937 731.48C189.814 731.687 244.337 746.313 244.337 746.313L257.433 727.366C257.433 727.366 260.334 704.101 231.898 682.257Z" fill="#81AF46"/>
<path id="Vector_59" opacity="0.1" d="M205.412 702.465C208.591 693.137 216.475 688.576 229.514 688.524C233.285 688.514 236.945 688.908 240.128 689.425C237.728 687.038 234.997 684.638 231.897 682.257C229.781 680.627 227.72 679.174 225.713 677.871C219.746 678.272 214.48 679.594 210.023 681.821C202.853 685.389 197.864 691.17 195.196 698.986L205.412 702.465Z" fill="black"/>
<g id="Group_27">
<path id="Vector_60" d="M107.111 742.666C93.8246 740.841 17.3797 798.303 15.5461 822.122C13.7069 845.947 52.6724 863.052 91.3676 850.375C145.87 832.518 120.398 744.5 107.111 742.666Z" fill="#8CC153"/>
</g>
<g id="Group_28">
<path id="Vector_61" d="M90.7985 800.576C84.1727 782.377 10.152 746.606 -1.02594 757.714C-12.2073 768.821 -3.08461 846.599 38.1825 854.981C104.285 868.413 97.4223 818.784 90.7985 800.576Z" fill="#A0D468"/>
</g>
<g id="Group_29">
<path id="Vector_62" d="M269.889 719.647C261.355 709.297 164.556 700.182 147.073 716.451C129.585 732.727 146.656 771.71 183.702 788.605C235.887 812.4 278.424 729.997 269.889 719.647Z" fill="#8CC153"/>
</g>
<g id="Group_30">
<path id="Vector_63" d="M213.949 757.915C221.416 740.034 195.218 656.328 179.476 656.919C163.727 657.509 116.791 721.832 141.454 755.959C180.973 810.627 206.491 775.791 213.949 757.915Z" fill="#A0D468"/>
</g>
</g>
<g id="ham">
<g id="Group_31">
<path id="Vector_64" d="M1831.39 522.901L1886.21 592.603C1882.07 599.131 1882.26 607.811 1887.31 614.23C1893.71 622.369 1905.5 623.772 1913.64 617.377C1917.42 614.403 1919.74 610.28 1920.52 605.887C1924.96 606.177 1929.51 604.889 1933.29 601.917C1941.43 595.517 1942.84 583.728 1936.44 575.589C1931.39 569.17 1923 566.942 1915.69 569.419L1860.87 499.716L1831.39 522.901Z" fill="#E6E9ED"/>
</g>
<g id="Group_32">
<path id="Vector_65" d="M1877.4 550.57C1935.12 505.175 1843.66 346.416 1843.66 346.416L1686.47 470.045C1686.47 470.045 1819.67 595.968 1877.4 550.57Z" fill="#E5675A"/>
</g>
<g id="Group_33" opacity="0.1">
<path id="Vector_66" d="M1696.28 462.327L1686.46 470.046C1686.46 470.046 1819.67 595.969 1877.39 550.57C1879.06 549.257 1880.6 547.85 1882.03 546.358C1821.9 581.063 1696.28 462.327 1696.28 462.327Z" fill="black"/>
</g>
<g id="Group_34">
<path id="Vector_67" d="M1792.11 442.612C1835.51 408.474 1858.6 365.406 1843.66 346.416C1828.72 327.418 1781.43 339.701 1738.02 373.839C1694.61 407.98 1671.52 451.048 1686.47 470.046C1701.4 489.036 1748.7 476.754 1792.11 442.612Z" fill="#EFACA0"/>
</g>
<g id="Group_35" opacity="0.1">
<path id="Vector_68" d="M1776.66 422.967C1803.79 401.63 1820.59 377.736 1814.19 369.597C1807.79 361.458 1780.6 372.155 1753.47 393.492C1726.34 414.831 1709.54 438.725 1715.94 446.864C1722.34 455.003 1749.52 444.306 1776.66 422.967Z" fill="black"/>
</g>
<path id="Vector_69" d="M1755.23 415.963C1753.1 413.25 1755.77 407.582 1761.2 403.314C1766.63 399.047 1772.75 397.791 1774.89 400.504C1777.02 403.217 1774.35 408.87 1768.92 413.137C1763.5 417.404 1757.36 418.676 1755.23 415.963Z" fill="#E6E9ED"/>
</g>
<g id="cheese">
<g id="Group_36">
<path id="Vector_70" d="M1673.95 514.731L1506.11 573.24L1471.84 667.178L1766.51 734.788L1800.78 640.851C1819.98 551.801 1673.95 514.731 1673.95 514.731Z" fill="#FFCE54"/>
</g>
<path id="Vector_71" d="M1673.95 514.731L1506.11 573.24L1800.78 640.851C1819.98 551.801 1673.95 514.731 1673.95 514.731Z" fill="#F6BB42"/>
<path id="Vector_72" opacity="0.1" d="M1657.92 522.192C1657.92 522.192 1792.12 556.258 1786.31 637.531L1800.78 640.851C1819.98 551.801 1673.95 514.731 1673.95 514.731L1506.11 573.24L1509.35 573.983L1657.92 522.192Z" fill="black"/>
<g id="Group_37" opacity="0.1">
<path id="Vector_73" d="M1585.06 648.618C1581.51 658.353 1570.75 663.353 1561.02 659.803C1551.29 656.254 1546.28 645.498 1549.83 635.763C1553.38 626.035 1564.15 621.027 1573.87 624.577C1583.6 628.126 1588.61 638.89 1585.06 648.618Z" fill="black"/>
</g>
<g id="Group_38" opacity="0.1">
<path id="Vector_74" d="M1740.96 658.939C1736.23 671.913 1721.88 678.585 1708.91 673.852C1695.94 669.119 1689.25 654.771 1693.99 641.797C1698.72 628.828 1713.08 622.152 1726.05 626.885C1739.01 631.618 1745.7 645.97 1740.96 658.939Z" fill="black"/>
</g>
<g id="Group_39" opacity="0.1">
<path id="Vector_75" d="M1656.14 581.419C1646.42 577.869 1640.93 568.42 1643.89 560.315C1646.85 552.205 1657.13 548.512 1666.86 552.061C1676.58 555.611 1682.07 565.06 1679.11 573.169C1676.16 581.275 1665.87 584.968 1656.14 581.419Z" fill="black"/>
</g>
<path id="Vector_76" opacity="0.1" d="M1736.76 597.528C1735.57 600.77 1731.98 602.441 1728.74 601.258C1725.5 600.075 1723.84 596.486 1725.02 593.244C1726.2 590.002 1729.78 588.332 1733.03 589.515C1736.27 590.698 1737.94 594.285 1736.76 597.528Z" fill="black"/>
<path id="Vector_77" opacity="0.1" d="M1702.65 545.162C1701.46 548.405 1697.87 550.076 1694.63 548.892C1691.39 547.709 1689.71 544.117 1690.9 540.875C1692.08 537.633 1695.67 535.966 1698.91 537.149C1702.16 538.332 1703.83 541.92 1702.65 545.162Z" fill="black"/>
<path id="Vector_78" opacity="0.1" d="M1610.77 578.167C1609.58 581.41 1605.99 583.077 1602.75 581.894C1599.51 580.71 1597.84 577.123 1599.02 573.88C1600.2 570.638 1603.79 568.967 1607.04 570.15C1610.28 571.333 1611.95 574.925 1610.77 578.167Z" fill="black"/>
<path id="Vector_79" opacity="0.1" d="M1508.19 622.236C1507.01 625.478 1503.42 627.149 1500.18 625.966C1496.93 624.782 1495.27 621.194 1496.45 617.952C1497.64 614.709 1501.22 613.035 1504.46 614.218C1507.71 615.401 1509.38 618.993 1508.19 622.236Z" fill="black"/>
<path id="Vector_80" opacity="0.1" d="M1655.51 674.327C1654.33 677.569 1650.74 679.24 1647.5 678.057C1644.25 676.874 1642.58 673.282 1643.76 670.04C1644.95 666.797 1648.54 665.135 1651.78 666.318C1655.02 667.501 1656.7 671.085 1655.51 674.327Z" fill="black"/>
<path id="Vector_81" opacity="0.1" d="M1749.45 708.604C1748.26 711.846 1744.68 713.52 1741.44 712.337C1738.2 711.154 1736.52 707.562 1737.71 704.32C1738.89 701.077 1742.48 699.415 1745.72 700.598C1748.96 701.781 1750.63 705.362 1749.45 708.604Z" fill="black"/>
<path id="Vector_82" opacity="0.1" d="M1617.11 633.706C1615.92 636.949 1612.34 638.615 1609.1 637.432C1605.86 636.249 1604.18 632.665 1605.37 629.423C1606.55 626.181 1610.14 624.509 1613.38 625.692C1616.63 626.875 1618.29 630.464 1617.11 633.706Z" fill="black"/>
<path id="Vector_83" opacity="0.1" d="M1786.31 637.531L1752.03 731.472L1766.51 734.788L1800.78 640.851L1786.31 637.531Z" fill="black"/>
</g>
<g id="broccoli">
<path id="Vector_84" d="M1697.84 854.404L1695.87 858.243C1695.79 858.402 1687.81 874.054 1679.07 890.221C1671.52 904.225 1666.63 912.678 1663.49 917.778C1663.61 913.148 1663.99 906.235 1664.89 895.928C1666.08 882.176 1667.61 869.179 1667.62 869.051L1668.15 864.522L1642.28 861.699L1641.55 865.872C1641.52 866 1639.25 878.955 1636.5 892.538C1634.37 903.09 1632.78 909.984 1631.62 914.481C1629.89 909.669 1627.37 902.046 1623.73 889.978C1619.29 875.225 1615.36 861.054 1615.32 860.914L1612.62 851.159L1597.43 874.866L1620.71 973.177L1663.09 977.801L1715.45 862.371L1697.84 854.404Z" fill="#A0D468"/>
<g id="Group_40" opacity="0.1">
<path id="Vector_85" d="M1655.9 894.947C1655 905.255 1653.5 930.658 1653.38 935.287C1655.69 931.55 1658.94 926.002 1663.49 917.779C1663.57 916.702 1664.02 906.838 1664.12 905.676C1665.31 891.924 1667.61 869.179 1667.62 869.051L1668.15 864.522L1659.17 863.542L1658.63 868.07C1658.62 868.198 1657.1 881.196 1655.9 894.947Z" fill="black"/>
<path id="Vector_86" d="M1697.84 854.404L1696.56 856.909L1706.45 861.39L1654.1 976.82L1663.09 977.801L1715.45 862.371L1697.84 854.404Z" fill="black"/>
<path id="Vector_87" d="M1614.74 888.998C1618.38 901.066 1626.01 924.947 1627.73 929.752C1628.64 926.254 1629.81 921.285 1631.29 914.266C1630.54 911.832 1624.61 892.906 1623.73 889.979C1619.29 875.226 1615.36 861.055 1615.32 860.914L1612.62 851.16L1606.54 860.655C1607.39 863.725 1610.87 876.139 1614.74 888.998Z" fill="black"/>
</g>
<g id="Group_41">
<path id="Vector_88" d="M1763.1 822.915C1764.92 806.266 1752.89 791.294 1736.24 789.478C1727.61 788.536 1719.43 791.315 1713.3 796.528C1709.8 785.391 1700 776.808 1687.65 775.46C1680.55 774.686 1673.76 776.43 1668.16 779.972C1662.09 769.974 1651.59 762.81 1639.06 761.443C1618.67 759.219 1600.24 773.142 1596.52 792.967C1593.85 791.832 1590.97 791.062 1587.93 790.73C1571.28 788.914 1556.31 800.94 1554.49 817.588C1553 831.291 1560.87 843.851 1572.99 848.884C1572.39 869.023 1587.37 886.551 1607.74 888.773C1613.16 889.365 1618.45 888.809 1623.36 887.306C1629.61 895.316 1638.97 900.893 1649.87 902.082C1666.12 903.854 1681.11 895.378 1688.42 881.828C1693.89 886.022 1700.54 888.811 1707.88 889.613C1729.29 891.949 1748.54 876.492 1750.87 855.083C1751.27 851.403 1751.15 847.789 1750.56 844.314C1757.35 839.467 1762.13 831.861 1763.1 822.915Z" fill="#76A336"/>
</g>
<path id="Vector_89" d="M1767.59 823.404C1769.68 804.303 1755.84 787.069 1736.73 784.985C1729.15 784.157 1721.72 785.769 1715.3 789.565C1710 779.331 1699.86 772.246 1688.14 770.967C1681.79 770.275 1675.35 771.361 1669.61 774.041C1662.4 764.429 1651.66 758.271 1639.55 756.95C1628.59 755.754 1617.68 758.724 1608.84 765.314C1601.44 770.828 1596.05 778.447 1593.33 787.13C1591.72 786.715 1590.08 786.419 1588.42 786.238C1569.32 784.154 1552.08 797.998 1550 817.099C1549.16 824.739 1550.81 832.25 1554.76 838.819C1558.06 844.291 1562.86 848.806 1568.49 851.761C1568.87 861.592 1572.58 870.989 1579.08 878.507C1586.3 886.828 1596.3 892.069 1607.25 893.264C1612.14 893.798 1617.01 893.516 1621.74 892.42C1628.9 900.409 1638.61 905.398 1649.38 906.573C1658.15 907.529 1666.88 905.844 1674.63 901.68C1680.72 898.414 1685.89 893.809 1689.79 888.213C1695.14 891.407 1701.14 893.428 1707.39 894.11C1731.24 896.712 1752.77 879.425 1755.37 855.574C1755.71 852.474 1755.71 849.36 1755.39 846.284C1762.22 840.531 1766.62 832.338 1767.59 823.404ZM1747.93 840.635L1745.63 842.278L1746.1 845.071C1746.64 848.2 1746.73 851.404 1746.38 854.594C1744.32 873.488 1727.27 887.185 1708.37 885.124C1702.18 884.448 1696.3 882.115 1691.36 878.378C1690.76 877.773 1688.1 874.921 1685.89 869.897C1685.56 869.155 1685.26 868.397 1684.98 867.633L1682.95 859.231C1682.32 854.437 1682.5 849.324 1683.48 843.925C1683.5 843.816 1683.52 843.712 1683.53 843.604C1683.8 841.122 1682.01 838.891 1679.53 838.621C1677.16 838.361 1675.01 839.99 1674.59 842.305L1674.59 842.301C1670.71 863.588 1678.54 876.896 1682.84 882.351C1675.75 893.076 1663.33 899.001 1650.36 897.586C1641.03 896.568 1632.7 891.929 1626.92 884.524L1625.01 882.078L1622.04 882.979C1617.56 884.356 1612.92 884.782 1608.23 884.27C1599.56 883.324 1591.63 879.175 1585.92 872.583C1580.28 866.073 1577.3 857.773 1577.51 849.203C1577.71 847.643 1579.68 834.928 1589.34 828.541C1595.99 824.147 1605.05 823.66 1616.27 827.089C1616.54 827.169 1616.82 827.229 1617.1 827.26C1619.59 827.531 1621.82 825.739 1622.09 823.257C1622.33 821.062 1620.95 819.067 1618.91 818.444C1604.98 814.187 1593.36 815.047 1584.36 820.999C1575.65 826.754 1571.65 835.89 1569.86 842.02C1566.91 839.949 1564.38 837.263 1562.51 834.158C1559.59 829.295 1558.37 823.736 1558.99 818.078C1560.53 803.934 1573.29 793.68 1587.44 795.223C1589.97 795.499 1592.43 796.14 1594.75 797.126L1599.92 799.326L1600.96 793.8C1602.56 785.298 1607.28 777.752 1614.24 772.56C1621.25 767.342 1629.89 764.991 1638.57 765.938C1649.18 767.095 1658.45 772.94 1664.1 781.992C1664.7 788.947 1664.84 806.422 1652.24 813.8L1652.24 813.804C1651.05 814.503 1650.19 815.732 1650.03 817.21C1649.76 819.692 1651.56 821.926 1654.04 822.197C1655.04 822.306 1656 822.071 1656.81 821.6L1656.81 821.603C1665.77 816.358 1671.33 806.957 1672.91 794.412C1673.49 789.723 1673.42 785.435 1673.2 782.341C1677.52 780.25 1682.3 779.426 1687.16 779.956C1696.43 780.967 1704.35 786.881 1708.03 795.306C1706.11 797.278 1703.36 800.459 1701.01 804.573C1695.52 814.183 1694.76 824.278 1698.78 833.77C1698.79 833.788 1698.8 833.802 1698.8 833.819C1698.81 833.833 1698.81 833.846 1698.83 833.861C1699.45 835.312 1700.81 836.393 1702.49 836.576C1704.97 836.847 1707.21 835.056 1707.48 832.574C1707.57 831.771 1707.43 830.996 1707.13 830.305L1707.14 830.305C1704.21 823.467 1704.75 816.398 1708.73 809.285C1711.7 803.981 1715.61 800.507 1716.13 800.054L1716.23 799.972C1721.69 795.325 1728.63 793.194 1735.75 793.971C1749.89 795.514 1760.14 808.279 1758.6 822.423C1757.8 829.724 1753.92 836.362 1747.93 840.635Z" fill="#688E2D"/>
</g>
<g id="carrot">
<g id="Group_42">
<path id="Vector_90" d="M500.802 789.148C500.666 790.322 500.131 791.458 499.204 792.334C497.113 794.303 493.818 794.205 491.848 792.118C473.244 772.396 454.731 760.135 442.477 753.315C429.178 745.905 420.163 743.139 420.074 743.113C417.324 742.288 415.764 739.38 416.594 736.635C417.42 733.881 420.316 732.32 423.066 733.146C423.463 733.268 433 736.164 447.2 744.024C460.182 751.221 479.779 764.161 499.416 784.978C500.518 786.135 500.972 787.677 500.802 789.148Z" fill="#8CC153"/>
</g>
<g id="Group_43">
<path id="Vector_91" d="M495.968 773.41C495.822 774.668 495.221 775.874 494.185 776.767C492.002 778.634 488.713 778.383 486.847 776.2C461.547 746.663 452.652 703.221 452.285 701.388C451.721 698.566 453.552 695.829 456.37 695.264C459.185 694.7 461.93 696.531 462.489 699.353C462.602 699.904 471.285 742.031 494.751 769.429C495.733 770.572 496.129 772.024 495.968 773.41Z" fill="#8CC153"/>
</g>
<g id="Group_44">
<path id="Vector_92" d="M521.91 811.449C521.756 812.775 521.099 814.035 519.974 814.934C517.72 816.715 514.446 816.336 512.66 814.086L422.288 700.007C420.503 697.749 420.882 694.475 423.136 692.694C425.389 690.912 428.663 691.292 430.445 693.541L520.822 807.621C521.713 808.745 522.063 810.13 521.91 811.449Z" fill="#A0D468"/>
</g>
<g id="Group_45">
<path id="Vector_93" d="M495.968 773.41C495.761 775.199 494.626 776.834 492.849 777.595C490.21 778.726 487.149 777.503 486.015 774.867C474.467 747.945 471.789 714.901 471.677 713.513C471.457 710.646 473.599 708.137 476.466 707.917C479.33 707.696 481.835 709.837 482.055 712.705C482.084 713.023 484.725 745.456 495.581 770.762C495.952 771.626 496.07 772.531 495.968 773.41Z" fill="#A0D468"/>
</g>
<g id="Group_46">
<path id="Vector_94" d="M639.035 965.226C616.877 982.78 516.217 870.887 477.436 821.929C451.581 789.293 510.667 742.489 536.521 775.126C575.295 824.075 661.185 947.672 639.035 965.226Z" fill="#FC6E51"/>
</g>
<g id="Group_47" opacity="0.2">
<path id="Vector_95" d="M528.36 781.59C564.656 827.403 642.214 938.599 633.839 967.051C635.864 966.94 637.614 966.352 639.035 965.226C661.185 947.672 575.296 824.075 536.522 775.125C522.398 757.297 498.365 763.174 483.671 777.491C498.047 768.329 516.626 766.774 528.36 781.59Z" fill="white"/>
</g>
<path id="Vector_96" d="M527.422 880.158C532.622 876.246 539.882 870.367 543.248 866.771L543.241 866.77C543.977 865.98 544.479 864.971 544.612 863.819C544.944 860.961 542.9 858.382 540.043 858.051C538.338 857.853 536.734 858.504 535.647 859.669L535.644 859.66C532.619 862.897 525.105 868.914 520.394 872.423C522.707 874.989 525.054 877.572 527.422 880.158Z" fill="#E9573F"/>
<path id="Vector_97" d="M497.672 846.48C501.891 843.912 509.672 838.739 515.827 832.156L515.819 832.155C516.556 831.365 517.058 830.348 517.191 829.204C517.522 826.347 515.479 823.76 512.622 823.428C510.917 823.231 509.312 823.89 508.225 825.054L508.222 825.046C502.159 831.532 493.897 836.649 490.869 838.417C493.047 841.028 495.32 843.718 497.672 846.48Z" fill="#E9573F"/>
<path id="Vector_98" d="M558.078 912.223C561.962 909.332 567.322 904.961 570.671 901.387L570.663 901.386C571.399 900.596 571.901 899.586 572.034 898.434C572.366 895.577 570.322 892.998 567.466 892.666C565.76 892.469 564.156 893.12 563.069 894.284L563.062 894.276C559.904 897.665 554.123 902.286 550.673 904.751C553.144 907.273 555.613 909.763 558.078 912.223Z" fill="#E9573F"/>
<path id="Vector_99" d="M598.092 936.002L598.084 936.001C598.821 935.211 599.322 934.202 599.456 933.05C599.787 930.192 597.744 927.613 594.887 927.282C593.182 927.084 591.578 927.735 590.491 928.9L590.483 928.899C589.238 930.229 585.712 933.284 582.847 935.671C585.548 938.073 588.208 940.37 590.818 942.57C593.305 940.47 596.532 937.672 598.092 936.002Z" fill="#E9573F"/>
</g>
<g id="hot_pepper">
<g id="Group_48">
<g id="Group_49">
<path id="Vector_100" d="M1830.99 814.066C1830.95 813.654 1830.96 813.233 1831 812.805C1831.16 811.487 1835.14 780.393 1865.09 767.334C1868.23 765.964 1871.89 767.402 1873.26 770.548C1874.63 773.688 1873.19 777.349 1870.05 778.719C1846.56 788.959 1843.37 814.001 1843.33 814.25C1842.93 817.657 1839.86 820.094 1836.44 819.694C1833.47 819.342 1831.23 816.943 1830.99 814.066Z" fill="#8CC153"/>
</g>
<path id="Vector_101" d="M1872.5 1064.85C1770.96 905.393 1856.26 867.502 1859.5 832.434C1863 794.686 1816.53 785.156 1801.12 807.004C1687.37 968.255 1823.27 1079.43 1872.5 1064.85Z" fill="#ED5564"/>
<path id="Vector_102" opacity="0.1" d="M1813.49 805.941C1817.19 800.703 1822.67 797.274 1828.8 795.601C1818.06 794.672 1807.18 798.405 1801.12 807.004C1687.64 967.866 1822.62 1078.89 1872.15 1064.95C1816.24 1060.98 1708.48 954.801 1813.49 805.941Z" fill="black"/>
<path id="Vector_103" d="M1846.08 791.861C1839.92 786.682 1826.73 795.483 1826.73 795.483L1853.73 809.048C1853.73 809.048 1852.24 797.045 1846.08 791.861Z" fill="#A0D468"/>
</g>
</g>
<g id="corn">
<g id="Group_50">
<path id="Vector_104" d="M1508.16 490.111C1505.92 489.035 1503.66 487.896 1501.27 486.695C1498.8 485.443 1496.24 484.159 1493.59 482.888C1490.95 481.618 1488.35 480.42 1485.82 479.268C1483.38 478.152 1481.08 477.099 1478.85 476.028C1466.67 470.173 1459.17 464.84 1456.82 454.854C1453.86 442.221 1459.14 422.118 1472.95 393.38C1490.87 356.076 1518.29 303.376 1547.09 264.159C1562.32 243.401 1576.48 228.397 1589.17 219.551C1602.61 210.181 1613.85 207.881 1623.52 212.527C1633.19 217.174 1638.41 227.384 1639.5 243.737C1640.52 259.17 1637.64 279.598 1630.96 304.465C1618.32 351.448 1594.31 405.782 1576.38 443.086C1562.57 471.815 1550.17 488.5 1538.45 494.08C1529.19 498.493 1520.33 495.961 1508.16 490.111Z" fill="#FFCE54"/>
</g>
<path id="Vector_105" d="M1478.35 397.226C1478.5 396.877 1478.66 396.55 1478.83 396.206C1487.14 378.909 1495.01 363.445 1502.36 349.642L1511.28 353.928C1509.35 357.654 1507.41 361.456 1505.45 365.357L1517.11 371.207C1519.11 367.236 1521.07 363.361 1523.04 359.579L1540.2 367.825L1534.55 379.576L1517.51 371.388L1511.86 383.149L1528.9 391.337L1517.67 414.702L1529.42 420.35L1540.65 396.984L1556.18 404.448L1561.83 392.687L1546.3 385.224L1551.95 373.472L1569.1 381.714C1568.81 382.381 1568.52 383.056 1568.22 383.727L1580.12 389.035C1580.37 388.476 1580.62 387.917 1580.86 387.366L1582.67 388.235L1588.32 376.483L1586.07 375.403C1587.82 371.3 1589.5 367.279 1591.1 363.345L1602.15 368.653C1591.68 394.908 1580.19 420.088 1570.5 440.261C1570.33 440.605 1570.17 440.928 1570 441.273L1581.76 446.924C1581.92 446.589 1582.09 446.253 1582.25 445.908C1603.36 401.976 1630.73 339.21 1641.53 288.479L1642.38 286.706L1641.95 286.495C1643.8 277.502 1645.11 268.899 1645.76 260.87L1646.34 259.669L1645.86 259.441C1647.68 233.972 1642.59 214.459 1626.34 206.652C1604.72 196.259 1579.25 214.26 1554.25 244.352L1553.85 244.158L1553.07 245.785C1520.16 285.913 1488.21 346.583 1467.08 390.559C1466.91 390.904 1466.75 391.239 1466.59 391.575L1478.35 397.227L1478.35 397.226ZM1606.9 356.467L1595.94 351.2C1597.57 347.022 1599.11 342.943 1600.58 338.964L1611.46 344.193C1609.98 348.284 1608.46 352.383 1606.9 356.467ZM1619.85 319.284C1618.56 323.426 1617.21 327.604 1615.79 331.801L1605.01 326.621C1606.49 322.334 1607.89 318.185 1609.19 314.162L1619.85 319.284ZM1624.66 302.773C1624.31 304.047 1623.97 305.334 1623.6 306.622L1613.14 301.591C1614.48 297.165 1615.69 292.925 1616.8 288.883L1626.96 293.765C1626.26 296.694 1625.49 299.696 1624.66 302.773ZM1629.81 280.66L1620.15 276.018C1621.31 271.356 1622.29 267.013 1623.14 262.992L1631.98 267.237C1631.44 271.479 1630.72 275.959 1629.81 280.66ZM1628.86 226.653C1631.12 231.048 1632.5 236.939 1632.98 244.169C1633.17 247.024 1633.22 250.087 1633.12 253.318L1625.69 249.748C1627.35 240.22 1628.26 232.456 1628.74 226.429C1628.79 226.504 1628.83 226.577 1628.86 226.653ZM1608.44 255.926L1611.02 257.167C1610.19 261.248 1609.23 265.607 1608.13 270.243L1602.79 267.678L1608.44 255.926ZM1597.14 279.433L1604.86 283.14C1603.77 287.211 1602.57 291.459 1601.25 295.881L1591.49 291.189L1597.14 279.433ZM1585.84 302.941L1597.35 308.473C1596.06 312.505 1594.67 316.658 1593.19 320.944L1580.19 314.697L1585.84 302.941ZM1574.55 326.453L1588.79 333.296C1587.32 337.275 1585.78 341.357 1584.16 345.54L1568.9 338.205L1574.55 326.453ZM1563.25 349.961L1579.33 357.689C1577.73 361.623 1576.06 365.648 1574.3 369.747L1557.6 361.721L1563.25 349.961ZM1545.85 356.073L1529.14 348.047C1531.26 344.113 1533.36 340.295 1535.42 336.589L1551.5 344.314L1545.85 356.074L1545.85 356.073ZM1557.15 332.557L1541.9 325.23C1544.16 321.345 1546.38 317.589 1548.58 313.974L1562.79 320.805L1557.15 332.557ZM1568.44 309.05L1555.47 302.814C1557.89 298.965 1560.27 295.288 1562.6 291.771L1574.09 297.294L1568.44 309.05ZM1579.74 285.542L1569.99 280.858C1572.64 277.04 1575.21 273.45 1577.68 270.083L1585.39 273.786L1579.74 285.542ZM1594.1 249.033L1596.69 250.278L1591.04 262.03L1585.69 259.461C1588.68 255.616 1591.5 252.149 1594.1 249.033ZM1592.89 224.901C1596.93 222.09 1600.74 219.988 1604.3 218.626C1600.43 222.408 1595.87 227.135 1590.73 232.945L1585.66 230.509C1588.13 228.415 1590.54 226.54 1592.89 224.901ZM1575.51 240.101L1581.99 243.216C1579.39 246.384 1576.61 249.871 1573.67 253.685L1566.38 250.181C1569.48 246.531 1572.54 243.172 1575.51 240.101ZM1552.34 268.019C1554.22 265.448 1556.09 262.975 1557.93 260.592L1565.73 264.34C1563.27 267.733 1560.72 271.331 1558.1 275.14L1550 271.247C1550.8 270.128 1551.58 269.048 1552.34 268.019ZM1542.45 282.089L1550.74 286.069C1548.42 289.604 1546.06 293.29 1543.64 297.13L1535.22 293.084C1537.76 289.131 1540.17 285.47 1542.45 282.089ZM1528.26 304.21L1536.77 308.298C1534.58 311.925 1532.36 315.681 1530.1 319.562L1521.51 315.433C1523.83 311.492 1526.08 307.752 1528.26 304.21ZM1514.96 326.755L1523.65 330.929C1521.58 334.649 1519.5 338.462 1517.37 342.392L1508.58 338.163C1510.75 334.203 1512.89 330.405 1514.96 326.755Z" fill="#F6BB42"/>
<g id="Group_51">
<path id="Vector_106" d="M1505.76 494.109C1505.76 494.109 1490.5 490.084 1475.68 480.747C1459.92 470.809 1449 461.469 1447.15 448.806C1443.55 424.25 1488.09 299.371 1488.09 299.371C1488.09 299.371 1558.53 399.908 1505.76 494.109Z" fill="#8CC153"/>
</g>
<g id="Group_52" opacity="0.1">
<path id="Vector_107" d="M1464.62 473.17C1467.94 475.699 1471.65 478.204 1475.68 480.747C1475.96 480.922 1476.23 481.084 1476.5 481.255C1484.6 484.947 1495.62 489.492 1506.64 492.506C1524.02 460.619 1527.43 428.072 1524.36 398.999C1499.97 417.778 1477.69 442.12 1464.62 473.17Z" fill="black"/>
</g>
<g id="Group_53">
<path id="Vector_108" d="M1475.59 480.693C1475.59 480.693 1531.37 510.942 1552.79 498.41C1574.22 485.868 1652.19 349.298 1652.19 349.298C1652.19 349.298 1516.18 380.638 1475.59 480.693Z" fill="#A0D468"/>
</g>
<g id="Group_54" opacity="0.2">
<path id="Vector_109" d="M1634.18 354.475C1615.25 387.032 1558.77 482.375 1541.04 492.761C1526.4 501.325 1495.7 489.9 1477.75 481.812C1488.19 487.189 1533.88 509.475 1552.79 498.409C1574.22 485.867 1652.19 349.297 1652.19 349.297C1652.19 349.297 1645.31 350.888 1634.18 354.475Z" fill="white"/>
</g>
</g>
<g id="avocado">
<g id="Group_55">
<path id="Vector_110" d="M85.8664 179.158C56.4327 177.501 -6.0499 150.137 -6.0499 150.137C-6.0499 150.137 59.1044 129.937 88.5383 131.593C117.965 133.246 141.223 145.234 140.487 158.37C139.749 171.506 115.297 180.812 85.8664 179.158Z" fill="#8CC153"/>
</g>
<path id="Vector_111" d="M153.36 136.415C150.479 134.88 146.906 135.965 145.375 138.839L127.959 171.521L138.37 177.069L155.786 144.387C157.317 141.514 156.225 137.942 153.36 136.415Z" fill="#434A54"/>
<path id="Vector_112" d="M22.664 380.763C-1.27181 368.008 -15.3017 352.429 -20.2447 333.148C-22.8786 322.849 -22.9051 311.201 -20.3273 298.521C-17.5688 284.989 -11.751 269.829 -3.04366 253.488C7.61373 233.488 33.2175 208.175 60.6829 190.497C75.1422 181.194 89.2663 174.56 101.55 171.324C114.668 167.863 125.325 168.239 133.221 172.446C141.132 176.662 147.419 185.321 151.932 198.192C156.161 210.237 158.62 225.712 159.048 242.943C159.859 275.762 153.266 311.201 142.649 331.125C133.942 347.465 124.595 360.745 114.908 370.585C105.813 379.792 96.1376 386.27 86.1044 389.819C67.352 396.473 46.5964 393.516 22.664 380.763Z" fill="#FFE7B0"/>
<path id="Vector_113" d="M135.993 167.244C96.8057 146.362 13.9322 209.088 -8.24948 250.714C-44.997 319.675 -28.0888 360.392 19.8936 385.961C67.8795 411.531 111.099 402.855 147.847 333.894C170.029 292.268 175.183 188.128 135.993 167.244ZM84.1353 384.259C67.0397 390.337 47.8346 387.482 25.4422 375.549C3.04587 363.615 -10.0273 349.27 -14.531 331.682C-16.9444 322.254 -16.9549 311.494 -14.5431 299.695C-11.9033 286.716 -6.2843 272.095 2.15506 256.258C6.98832 247.188 15.6168 236.284 26.4369 225.547C37.7033 214.376 50.6457 203.971 63.8754 195.452C77.8167 186.479 91.3612 180.104 103.051 177.027C117.549 173.2 125.95 175.255 130.447 177.652C138.618 182.005 143.613 192.281 146.373 200.142C150.399 211.613 152.741 226.463 153.144 243.08C153.533 258.876 152.206 275.47 149.28 291.061C146.469 306.071 142.253 319.307 137.437 328.346C128.997 344.183 120.009 357.009 110.701 366.435C102.252 375.017 93.3222 381.012 84.1353 384.259Z" fill="#B6C967"/>
<path id="Vector_114" opacity="0.2" d="M135.993 167.244C132.517 165.392 128.69 164.2 124.592 163.591C153.316 195.044 147.252 284.877 127.04 322.807C93.0217 386.645 53.4594 398.817 9.71003 379.986C12.9244 382.071 16.3269 384.06 19.8942 385.961C67.88 411.531 111.1 402.855 147.847 333.894C170.029 292.268 175.183 188.128 135.993 167.244Z" fill="white"/>
<g id="Group_56">
<path id="Vector_115" d="M109.027 319.882C93.7114 348.623 62.6681 361.996 39.6655 349.738C16.6828 337.491 10.463 304.262 25.7784 275.521C41.0882 246.79 72.1374 233.425 95.12 245.672C118.123 257.929 124.337 291.151 109.027 319.882Z" fill="#965353"/>
</g>
<g id="Group_57" opacity="0.2">
<path id="Vector_116" d="M95.1199 245.672C93.3672 244.738 91.5566 243.949 89.7071 243.306C108.534 257.449 112.75 287.81 98.6155 314.334C84.4739 340.872 56.9256 354.298 34.6872 346.557C36.2523 347.734 37.9126 348.805 39.6653 349.738C62.668 361.996 93.7112 348.623 109.027 319.882C124.336 291.151 118.123 257.929 95.1199 245.672Z" fill="white"/>
</g>
</g>
<g id="sausage">
<g id="Group_58">
<path id="Vector_117" d="M251.312 213.124L201.658 256.257L255.897 298.023L271.529 266.68L251.312 213.124Z" fill="#E9573F"/>
</g>
<g id="Group_59">
<path id="Vector_118" d="M588.284 272.443L620.212 329.937L554.971 350.671L550.982 315.873L588.284 272.443Z" fill="#E9573F"/>
</g>
<g id="Group_60">
<path id="Vector_119" d="M580.034 353.95C585.12 325.057 565.818 297.506 536.924 292.419C520.843 289.588 505.169 294.316 493.567 304.041C493.504 304.102 485.012 310.522 471.262 316.141C450.088 324.806 428.006 327.188 405.627 323.248C384.398 319.511 365.313 310.476 348.897 296.379C337.696 286.769 331.303 277.749 329.625 275.241L328.791 273.916C321.11 261.442 308.321 252.177 292.763 249.438C263.87 244.352 236.32 263.655 231.234 292.549C228.976 305.374 231.523 317.91 237.56 328.349C237.661 328.525 237.783 328.73 237.925 328.966C237.946 328.996 237.967 329.026 237.987 329.069C240.973 334.099 252.8 352.721 274.999 372.867C306.57 401.497 345.375 420.521 387.208 427.885C429.053 435.251 472.01 430.62 511.471 414.494C539.23 403.13 556.706 389.665 561.231 385.957C561.248 385.934 561.263 385.923 561.278 385.914C561.493 385.741 561.695 385.565 561.85 385.434C571.101 377.687 577.776 366.775 580.034 353.95Z" fill="#FC6E51"/>
</g>
<g id="Group_61" opacity="0.2">
<path id="Vector_120" d="M291.227 258.163C306.785 260.902 319.576 270.159 327.257 282.633L328.09 283.958C329.769 286.466 336.16 295.493 347.361 305.102C363.777 319.2 382.862 328.235 404.092 331.972C426.47 335.911 448.554 333.517 469.727 324.865C483.477 319.245 491.97 312.818 492.034 312.758C503.635 303.034 519.308 298.313 535.389 301.144C562.801 305.969 581.583 331.017 579.079 358.259C579.446 356.849 579.778 355.406 580.035 353.95C585.121 325.057 565.819 297.506 536.925 292.419C520.844 289.589 505.17 294.316 493.568 304.041C493.505 304.102 485.013 310.522 471.262 316.141C450.088 324.806 428.006 327.188 405.627 323.248C384.398 319.511 365.313 310.476 348.897 296.379C337.696 286.769 331.303 277.749 329.625 275.241L328.791 273.916C321.11 261.442 308.321 252.177 292.763 249.438C263.87 244.352 236.32 263.655 231.234 292.549C230.978 294.005 230.785 295.472 230.649 296.923C237.61 270.467 263.803 253.335 291.227 258.163Z" fill="white"/>
</g>
<g id="Group_62" opacity="0.1">
<path id="Vector_121" d="M580.831 345.082C577.605 354.207 572.024 362.048 564.919 368.001C564.764 368.132 564.564 368.294 564.349 368.467C564.332 368.49 564.315 368.513 564.3 368.524C559.778 372.217 542.3 385.695 514.543 397.046C475.081 413.173 432.122 417.818 390.277 410.452C348.444 403.088 309.641 384.049 278.071 355.419C255.87 335.286 244.042 316.664 241.056 311.635C241.035 311.606 241.016 311.563 240.994 311.533C240.851 311.297 240.732 311.079 240.629 310.916C235.983 302.894 233.416 293.618 233.5 283.94C232.528 286.693 231.757 289.573 231.233 292.55C228.976 305.375 231.523 317.91 237.56 328.35C237.66 328.526 237.782 328.731 237.925 328.967C237.945 328.997 237.966 329.026 237.986 329.069C240.972 334.099 252.799 352.722 274.999 372.867C306.569 401.498 345.374 420.522 387.207 427.886C429.052 435.252 472.009 430.621 511.47 414.494C539.23 403.13 556.705 389.666 561.23 385.958C561.247 385.935 561.262 385.924 561.277 385.914C561.492 385.741 561.694 385.566 561.849 385.435C571.1 377.687 577.776 366.774 580.033 353.95C580.558 350.973 580.817 348.003 580.831 345.082Z" fill="black"/>
</g>
</g>
<rect id="filter" width="1920" height="1080" fill="#0F0E0E" fill-opacity="0.38"/>
</g>
<defs>
<clipPath id="clip0_3_2">
<rect width="1920" height="1080" fill="white"/>
</clipPath>
</defs>
</svg>
