<svg xmlns="http://www.w3.org/2000/svg" viewBox="0 0 32 32">
    <g id="refrigerator">
        <path d="M25,13V4.26A2.26,2.26,0,0,0,22.74,2H9.26A2.26,2.26,0,0,0,7,4.26V25.74A2.25,2.25,0,0,0,9,28v1a1,1,0,0,0,2,0V28H21v1a1,1,0,0,0,2,0V28a2.25,2.25,0,0,0,2-2.23V17a1,1,0,0,0-2,0v8.74a.26.26,0,0,1-.26.26H9.26A.26.26,0,0,1,9,25.74V4.26A.26.26,0,0,1,9.26,4H22.74a.26.26,0,0,1,.26.26V12H11a1,1,0,0,0,0,2H24A1,1,0,0,0,25,13Z"/>
        <path d="M11,10a1,1,0,0,0,1-1V8a1,1,0,0,0-2,0V9A1,1,0,0,0,11,10Z"/>
        <path d="M10,17v2a1,1,0,0,0,2,0V17a1,1,0,0,0-2,0Z"/>
    </g>
</svg>